<?xml version='1.0' encoding='UTF-8'?>
<svg xmlns="http://www.w3.org/2000/svg" xmlns:xlink="http://www.w3.org/1999/xlink" version="1.1" width="87.9671" height="88.75979" viewBox="0,0,87.9671,88.75979">
  <g transform="translate(-196.01645,-135.6201)">
    <g stroke-width="0" stroke-miterlimit="10">
      <path d="M276.96892,182.07879c0,20.5913 -16.7728,37.28384 -37.46309,37.28384c-20.69029,0 -37.46309,-16.69254 -37.46309,-37.28384c0,-20.5913 16.7728,-37.28384 37.46309,-37.28384c20.69029,0 37.46309,16.69254 37.46309,37.28384z" fill="#e8661d" stroke="none"/>
      <path d="M271.59144,182.43729c0,17.02742 -14.28497,30.83087 -31.90636,30.83087c-17.6214,0 -31.90636,-13.80345 -31.90636,-30.83087c0,-17.02742 14.28497,-30.83087 31.90636,-30.83087c17.6214,0 31.90636,13.80345 31.90636,30.83087z" fill="#000000" stroke="none"/>
      <path d="M200.00392,165.46248c0,0 -3.98747,-3.29478 -3.98747,-7.95498c0,-12.67156 7.36158,-21.86841 19.53816,-21.86841c7.37058,0 11.80516,5.24317 11.80516,5.24317c0,0 -8.7609,3.4099 -17.75302,9.89888c-6.71465,4.84549 -9.60283,14.68134 -9.60283,14.68134z" fill="#e8661d" stroke="#000000"/>
      <path d="M270.39325,150.76216c-8.99212,-6.48898 -17.75302,-9.89888 -17.75302,-9.89888c0,0 4.43457,-5.24317 11.80516,-5.24317c12.17658,0 19.53816,9.19684 19.53816,21.86841c0,4.6602 -3.98747,7.95498 -3.98747,7.95498c0,0 -2.88818,-9.83585 -9.60284,-14.68134z" fill="#e8661d" stroke="#000000"/>
      <path d="M244.65076,182.94872c0,2.67921 -2.12668,4.85114 -4.75008,4.85114c-2.6234,0 -4.75008,-2.17193 -4.75008,-4.85114c0,-2.67921 2.12668,-4.85114 4.75008,-4.85114c2.6234,0 4.75008,2.17193 4.75008,4.85114z" fill="#e8661d" stroke="none"/>
      <path d="M237.26176,186.27827v-26.65321h5.01397v26.65321z" fill="#e8661d" stroke="none"/>
      <path d="M240.42847,184.43102v-4.48618h16.88916v4.48618z" fill="#e8661d" stroke="none"/>
      <path d="M264.43476,224.12997l-9.88047,-13.0072l5.23901,-3.97963l9.88047,13.0072z" fill="#e8661d" stroke="none"/>
      <path d="M209.94238,220.40026l9.88047,-13.0072l5.23901,3.97964l-9.88047,13.0072z" fill="#e8661d" stroke="none"/>
    </g>
  </g>
</svg>
